ffmpeg version 2.6.8 Copyright (c) 2000-2016 the FFmpeg developers
  built with gcc 4.8.5 (GCC) 20150623 (Red Hat 4.8.5-4)
  configuration: --prefix=/usr --bindir=/usr/bin --datadir=/usr/share/ffmpeg --incdir=/usr/include/ffmpeg --libdir=/usr/lib64 --mandir=/usr/share/man --arch=x86_64 --optflags='-O2 -g -pipe -Wall -Wp,-D_FORTIFY_SOURCE=2 -fexceptions -fstack-protector-strong --param=ssp-buffer-size=4 -grecord-gcc-switches -m64 -mtune=generic' --enable-bzlib --disable-crystalhd --enable-gnutls --enable-ladspa --enable-libass --enable-libcdio --enable-libdc1394 --enable-libfaac --enable-nonfree --enable-libfdk-aac --enable-nonfree --disable-indev=jack --enable-libfreetype --enable-libgsm --enable-libmp3lame --enable-openal --enable-libopenjpeg --enable-libopus --enable-libpulse --enable-libschroedinger --enable-libsoxr --enable-libspeex --enable-libtheora --enable-libvorbis --enable-libv4l2 --enable-libx264 --enable-libx265 --enable-libxvid --enable-x11grab --enable-avfilter --enable-avresample --enable-postproc --enable-pthreads --disable-static --enable-shared --enable-gpl --disable-debug --disable-stripping --shlibdir=/usr/lib64 --enable-runtime-cpudetect
  libavutil      54. 20.100 / 54. 20.100
  libavcodec     56. 26.100 / 56. 26.100
  libavformat    56. 25.101 / 56. 25.101
  libavdevice    56.  4.100 / 56.  4.100
  libavfilter     5. 11.102 /  5. 11.102
  libavresample   2.  1.  0 /  2.  1.  0
  libswscale      3.  1.101 /  3.  1.101
  libswresample   1.  1.100 /  1.  1.100
  libpostproc    53.  3.100 / 53.  3.100
Input #0, hls,applehttp, from 'http://video3.earthcam.com/fecnetwork/9974.flv/chunklist_w1220748217.m3u8':
  Duration: N/A, start: 86321.820244, bitrate: N/A
  Program 0 
    Metadata:
      variant_bitrate : 0
    Stream #0:0: Data: timed_id3 (ID3  / 0x20334449)
    Stream #0:1: Video: h264 (Main) ([27][0][0][0] / 0x001B), yuvj420p(pc, bt709), 1280x720 [SAR 1:1 DAR 16:9], 30 tbr, 90k tbn, 180k tbc
    Stream #0:2: Audio: aac (LC) ([15][0][0][0] / 0x000F), 32000 Hz, mono, fltp, 128 kb/s
[swscaler @ 0xbf73e0] deprecated pixel format used, make sure you did set range correctly
Output #0, tee, to ' [f=image2]frame%0000d.png|[f=image2pipe]pipe:':
  Metadata:
    encoder         : Lavf56.25.101
    Stream #0:0: Video: png, rgb24, 1280x720 [SAR 1:1 DAR 16:9], q=2-31, 200 kb/s, 30 fps, 30 tbn, 30 tbc
    Metadata:
      encoder         : Lavc56.26.100 png
Stream mapping:
  Stream #0:1 -> #0:0 (h264 (native) -> png (native))
Press [q] to stop, [?] for help
frame=   30 fps=0.0 q=0.0 size=N/A time=00:00:00.00 bitrate=N/A    frame=   72 fps= 70 q=0.0 size=N/A time=00:00:00.30 bitrate=N/A    frame=  100 fps= 65 q=0.0 size=N/A time=00:00:01.23 bitrate=N/A    frame=  126 fps= 61 q=0.0 size=N/A time=00:00:02.10 bitrate=N/A    frame=  155 fps= 61 q=0.0 size=N/A time=00:00:03.06 bitrate=N/A    frame=  171 fps= 56 q=0.0 size=N/A time=00:00:03.60 bitrate=N/A    frame=  198 fps= 55 q=0.0 size=N/A time=00:00:04.50 bitrate=N/A    frame=  229 fps= 56 q=0.0 size=N/A time=00:00:05.53 bitrate=N/A    frame=  259 fps= 56 q=0.0 size=N/A time=00:00:06.53 bitrate=N/A    frame=  290 fps= 57 q=0.0 size=N/A time=00:00:07.56 bitrate=N/A    frame=  321 fps= 57 q=0.0 size=N/A time=00:00:08.60 bitrate=N/A    frame=  345 fps= 55 q=0.0 size=N/A time=00:00:09.40 bitrate=N/A    frame=  365 fps= 54 q=0.0 size=N/A time=00:00:10.06 bitrate=N/A    frame=  397 fps= 54 q=0.0 size=N/A time=00:00:11.13 bitrate=N/A    frame=  428 fps= 55 q=0.0 size=N/A time=00:00:12.16 bitrate=N/A    frame=  460 fps= 55 q=0.0 size=N/A time=00:00:13.23 bitrate=N/A    frame=  489 fps= 55 q=0.0 size=N/A time=00:00:14.20 bitrate=N/A    frame=  521 fps= 56 q=0.0 size=N/A time=00:00:15.26 bitrate=N/A    frame=  531 fps= 54 q=0.0 size=N/A time=00:00:15.60 bitrate=N/A    frame=  558 fps= 54 q=0.0 size=N/A time=00:00:16.50 bitrate=N/A    frame=  587 fps= 54 q=0.0 size=N/A time=00:00:17.46 bitrate=N/A    frame=  616 fps= 54 q=0.0 size=N/A time=00:00:18.43 bitrate=N/A    frame=  645 fps= 54 q=0.0 size=N/A time=00:00:19.40 bitrate=N/A    frame=  676 fps= 55 q=0.0 size=N/A time=00:00:20.43 bitrate=N/A    frame=  702 fps= 54 q=0.0 size=N/A time=00:00:21.30 bitrate=N/A    frame=  705 fps= 53 q=0.0 size=N/A time=00:00:21.40 bitrate=N/A    frame=  731 fps= 53 q=0.0 size=N/A time=00:00:22.26 bitrate=N/A    frame=  762 fps= 53 q=0.0 size=N/A time=00:00:23.30 bitrate=N/A    frame=  792 fps= 53 q=0.0 size=N/A time=00:00:24.30 bitrate=N/A    frame=  823 fps= 53 q=0.0 size=N/A time=00:00:25.33 bitrate=N/A    frame=  852 fps= 53 q=0.0 size=N/A time=00:00:26.30 bitrate=N/A    frame=  883 fps= 54 q=0.0 size=N/A time=00:00:27.33 bitrate=N/A    frame=  898 fps= 53 q=0.0 size=N/A time=00:00:27.83 bitrate=N/A    frame=  927 fps= 53 q=0.0 size=N/A time=00:00:28.80 bitrate=N/A    frame=  956 fps= 53 q=0.0 size=N/A time=00:00:29.76 bitrate=N/A    frame=  985 fps= 53 q=0.0 size=N/A time=00:00:30.73 bitrate=N/A    frame= 1016 fps= 53 q=0.0 size=N/A time=00:00:31.76 bitrate=N/A    frame= 1045 fps= 54 q=0.0 size=N/A time=00:00:32.73 bitrate=N/A    frame= 1065 fps= 53 q=0.0 size=N/A time=00:00:33.40 bitrate=N/A    frame= 1085 fps= 53 q=0.0 size=N/A time=00:00:34.06 bitrate=N/A    frame= 1116 fps= 53 q=0.0 size=N/A time=00:00:35.10 bitrate=N/A    frame= 1143 fps= 53 q=0.0 size=N/A time=00:00:36.00 bitrate=N/A    frame= 1172 fps= 53 q=0.0 size=N/A time=00:00:36.96 bitrate=N/A    frame= 1203 fps= 53 q=0.0 size=N/A time=00:00:38.00 bitrate=N/A    frame= 1232 fps= 53 q=0.0 size=N/A time=00:00:38.96 bitrate=N/A    frame= 1244 fps= 47 q=0.0 size=N/A time=00:00:39.36 bitrate=N/A    frame= 1264 fps= 47 q=0.0 size=N/A time=00:00:40.03 bitrate=N/A    frame= 1295 fps= 47 q=0.0 size=N/A time=00:00:41.06 bitrate=N/A    frame= 1324 fps= 48 q=0.0 size=N/A time=00:00:42.03 bitrate=N/A    frame= 1353 fps= 48 q=0.0 size=N/A time=00:00:43.00 bitrate=N/A    frame= 1385 fps= 48 q=0.0 size=N/A time=00:00:44.06 bitrate=N/A    frame= 1414 fps= 48 q=0.0 size=N/A time=00:00:45.03 bitrate=N/A    frame= 1425 fps= 44 q=0.0 size=N/A time=00:00:45.40 bitrate=N/A    frame= 1445 fps= 44 q=0.0 size=N/A time=00:00:46.06 bitrate=N/A    frame= 1474 fps= 44 q=0.0 size=N/A time=00:00:47.03 bitrate=N/A    frame= 1503 fps= 44 q=0.0 size=N/A time=00:00:48.00 bitrate=N/A    frame= 1534 fps= 44 q=0.0 size=N/A time=00:00:49.03 bitrate=N/A    frame= 1565 fps= 45 q=0.0 size=N/A time=00:00:50.06 bitrate=N/A    frame= 1597 fps= 45 q=0.0 size=N/A time=00:00:51.13 bitrate=N/A    frame= 1604 fps= 41 q=0.0 size=N/A time=00:00:51.36 bitrate=N/A    frame= 1626 fps= 41 q=0.0 size=N/A time=00:00:52.10 bitrate=N/A    frame= 1656 fps= 42 q=0.0 size=N/A time=00:00:53.10 bitrate=N/A    frame= 1684 fps= 42 q=0.0 size=N/A time=00:00:54.03 bitrate=N/A    frame= 1716 fps= 42 q=0.0 size=N/A time=00:00:55.10 bitrate=N/A    frame= 1747 fps= 42 q=0.0 size=N/A time=00:00:56.13 bitrate=N/A    frame= 1776 fps= 42 q=0.0 size=N/A time=00:00:57.10 bitrate=N/A    frame= 1785 fps= 40 q=0.0 size=N/A time=00:00:57.40 bitrate=N/A    frame= 1805 fps= 40 q=0.0 size=N/A time=00:00:58.06 bitrate=N/A    frame= 1836 fps= 40 q=0.0 size=N/A time=00:00:59.10 bitrate=N/A    frame= 1865 fps= 40 q=0.0 size=N/A time=00:01:00.06 bitrate=N/A    frame= 1895 fps= 40 q=0.0 size=N/A time=00:01:01.06 bitrate=N/A    frame= 1923 fps= 40 q=0.0 size=N/A time=00:01:02.00 bitrate=N/A    frame= 1949 fps= 41 q=0.0 size=N/A time=00:01:02.86 bitrate=N/A    frame= 1964 fps= 38 q=0.0 size=N/A time=00:01:03.36 bitrate=N/A    frame= 1986 fps= 38 q=0.0 size=N/A time=00:01:04.10 bitrate=N/A    frame= 2015 fps= 38 q=0.0 size=N/A time=00:01:05.06 bitrate=N/A    frame= 2044 fps= 39 q=0.0 size=N/A time=00:01:06.03 bitrate=N/A    frame= 2073 fps= 39 q=0.0 size=N/A time=00:01:07.00 bitrate=N/A    frame= 2102 fps= 39 q=0.0 size=N/A time=00:01:07.96 bitrate=N/A    frame= 2131 fps= 39 q=0.0 size=N/A time=00:01:08.93 bitrate=N/A    frame= 2145 fps= 37 q=0.0 size=N/A time=00:01:09.40 bitrate=N/A    frame= 2164 fps= 37 q=0.0 size=N/A time=00:01:10.03 bitrate=N/A    frame= 2194 fps= 37 q=0.0 size=N/A time=00:01:11.03 bitrate=N/A    frame= 2223 fps= 38 q=0.0 size=N/A time=00:01:12.00 bitrate=N/A    frame= 2254 fps= 38 q=0.0 size=N/A time=00:01:13.03 bitrate=N/A    frame= 2283 fps= 38 q=0.0 size=N/A time=00:01:14.00 bitrate=N/A    frame= 2312 fps= 38 q=0.0 size=N/A time=00:01:14.96 bitrate=N/A    frame= 2324 fps= 36 q=0.0 size=N/A time=00:01:15.36 bitrate=N/A    frame= 2346 fps= 36 q=0.0 size=N/A time=00:01:16.10 bitrate=N/A    frame= 2376 fps= 37 q=0.0 size=N/A time=00:01:17.10 bitrate=N/A    frame= 2406 fps= 37 q=0.0 size=N/A time=00:01:18.10 bitrate=N/A    frame= 2436 fps= 37 q=0.0 size=N/A time=00:01:19.10 bitrate=N/A    frame= 2465 fps= 37 q=0.0 size=N/A time=00:01:20.06 bitrate=N/A    frame= 2496 fps= 37 q=0.0 size=N/A time=00:01:21.10 bitrate=N/A    frame= 2505 fps= 36 q=0.0 size=N/A time=00:01:21.40 bitrate=N/A    frame= 2525 fps= 36 q=0.0 size=N/A time=00:01:22.06 bitrate=N/A    frame= 2554 fps= 36 q=0.0 size=N/A time=00:01:23.03 bitrate=N/A    frame= 2585 fps= 36 q=0.0 size=N/A time=00:01:24.06 bitrate=N/A    frame= 2615 fps= 36 q=0.0 size=N/A time=00:01:25.06 bitrate=N/A    frame= 2646 fps= 36 q=0.0 size=N/A time=00:01:26.10 bitrate=N/A    frame= 2678 fps= 37 q=0.0 size=N/A time=00:01:27.16 bitrate=N/A    frame= 2684 fps= 35 q=0.0 size=N/A time=00:01:27.36 bitrate=N/A    frame= 2706 fps= 35 q=0.0 size=N/A time=00:01:28.10 bitrate=N/A    frame= 2736 fps= 35 q=0.0 size=N/A time=00:01:29.10 bitrate=N/A    frame= 2767 fps= 36 q=0.0 size=N/A time=00:01:30.13 bitrate=N/A    frame= 2795 fps= 36 q=0.0 size=N/A time=00:01:31.06 bitrate=N/A    frame= 2824 fps= 36 q=0.0 size=N/A time=00:01:32.03 bitrate=N/A    frame= 2853 fps= 36 q=0.0 size=N/A time=00:01:33.00 bitrate=N/A    frame= 2865 fps= 35 q=0.0 size=N/A time=00:01:33.40 bitrate=N/A    frame= 2884 fps= 35 q=0.0 size=N/A time=00:01:34.03 bitrate=N/A    frame= 2914 fps= 35 q=0.0 size=N/A time=00:01:35.03 bitrate=N/A    frame= 2943 fps= 35 q=0.0 size=N/A time=00:01:36.00 bitrate=N/A    frame= 2974 fps= 35 q=0.0 size=N/A time=00:01:37.03 bitrate=N/A    frame= 3003 fps= 35 q=0.0 size=N/A time=00:01:38.00 bitrate=N/A    frame= 3032 fps= 35 q=0.0 size=N/A time=00:01:38.96 bitrate=N/A    frame= 3044 fps= 34 q=0.0 size=N/A time=00:01:39.36 bitrate=N/A    frame= 3064 fps= 34 q=0.0 size=N/A time=00:01:40.03 bitrate=N/A    frame= 3096 fps= 35 q=0.0 size=N/A time=00:01:41.10 bitrate=N/A    frame= 3126 fps= 35 q=0.0 size=N/A time=00:01:42.10 bitrate=N/A    frame= 3158 fps= 35 q=0.0 size=N/A time=00:01:43.16 bitrate=N/A    frame= 3188 fps= 35 q=0.0 size=N/A time=00:01:44.16 bitrate=N/A    frame= 3219 fps= 35 q=0.0 size=N/A time=00:01:45.20 bitrate=N/A    frame= 3225 fps= 34 q=0.0 size=N/A time=00:01:45.40 bitrate=N/A    frame= 3247 fps= 34 q=0.0 size=N/A time=00:01:46.13 bitrate=N/A    frame= 3276 fps= 34 q=0.0 size=N/A time=00:01:47.10 bitrate=N/A    frame= 3306 fps= 34 q=0.0 size=N/A time=00:01:48.10 bitrate=N/A    frame= 3337 fps= 34 q=0.0 size=N/A time=00:01:49.13 bitrate=N/A    frame= 3366 fps= 35 q=0.0 size=N/A time=00:01:50.10 bitrate=N/A    frame= 3398 fps= 35 q=0.0 size=N/A time=00:01:51.16 bitrate=N/A    frame= 3404 fps= 34 q=0.0 size=N/A time=00:01:51.36 bitrate=N/A    frame= 3426 fps= 34 q=0.0 size=N/A time=00:01:52.10 bitrate=N/A    frame= 3456 fps= 34 q=0.0 size=N/A time=00:01:53.10 bitrate=N/A    frame= 3486 fps= 34 q=0.0 size=N/A time=00:01:54.10 bitrate=N/A    frame= 3516 fps= 34 q=0.0 size=N/A time=00:01:55.10 bitrate=N/A    frame= 3545 fps= 34 q=0.0 size=N/A time=00:01:56.06 bitrate=N/A    frame= 3577 fps= 34 q=0.0 size=N/A time=00:01:57.13 bitrate=N/A    frame= 3585 fps= 33 q=0.0 size=N/A time=00:01:57.40 bitrate=N/A    frame= 3605 fps= 33 q=0.0 size=N/A time=00:01:58.06 bitrate=N/A    frame= 3636 fps= 34 q=0.0 size=N/A time=00:01:59.10 bitrate=N/A    frame= 3665 fps= 34 q=0.0 size=N/A time=00:02:00.06 bitrate=N/A    frame= 3697 fps= 34 q=0.0 size=N/A time=00:02:01.13 bitrate=N/A    frame= 3728 fps= 34 q=0.0 size=N/A time=00:02:02.16 bitrate=N/A    frame= 3758 fps= 34 q=0.0 size=N/A time=00:02:03.16 bitrate=N/A    frame= 3764 fps= 33 q=0.0 size=N/A time=00:02:03.36 bitrate=N/A    frame= 3781 fps= 33 q=0.0 size=N/A time=00:02:03.93 bitrate=N/A    frame= 3812 fps= 33 q=0.0 size=N/A time=00:02:04.96 bitrate=N/A    frame= 3843 fps= 33 q=0.0 size=N/A time=00:02:06.00 bitrate=N/A    frame= 3875 fps= 34 q=0.0 size=N/A time=00:02:07.06 bitrate=N/A    frame= 3905 fps= 34 q=0.0 size=N/A time=00:02:08.06 bitrate=N/A    frame= 3936 fps= 34 q=0.0 size=N/A time=00:02:09.10 bitrate=N/A    frame= 3945 fps= 33 q=0.0 size=N/A time=00:02:09.40 bitrate=N/A    frame= 3964 fps= 33 q=0.0 size=N/A time=00:02:10.03 bitrate=N/A    frame= 3991 fps= 33 q=0.0 size=N/A time=00:02:10.93 bitrate=N/A    frame= 4022 fps= 33 q=0.0 size=N/A time=00:02:11.96 bitrate=N/A    frame= 4049 fps= 33 q=0.0 size=N/A time=00:02:12.86 bitrate=N/A    frame= 4081 fps= 33 q=0.0 size=N/A time=00:02:13.93 bitrate=N/A    frame= 4115 fps= 33 q=0.0 size=N/A time=00:02:15.06 bitrate=N/A    frame= 4124 fps= 33 q=0.0 size=N/A time=00:02:15.36 bitrate=N/A    frame= 4147 fps= 33 q=0.0 size=N/A time=00:02:16.13 bitrate=N/A    frame= 4178 fps= 33 q=0.0 size=N/A time=00:02:17.16 bitrate=N/A    frame= 4209 fps= 33 q=0.0 size=N/A time=00:02:18.20 bitrate=N/A    frame= 4239 fps= 33 q=0.0 size=N/A time=00:02:19.20 bitrate=N/A    frame= 4270 fps= 33 q=0.0 size=N/A time=00:02:20.23 bitrate=N/A    frame= 4299 fps= 33 q=0.0 size=N/A time=00:02:21.20 bitrate=N/A    frame= 4305 fps= 33 q=0.0 size=N/A time=00:02:21.40 bitrate=N/A    frame= 4325 fps= 33 q=0.0 size=N/A time=00:02:22.06 bitrate=N/A    frame= 4357 fps= 33 q=0.0 size=N/A time=00:02:23.13 bitrate=N/A    frame= 4388 fps= 33 q=0.0 size=N/A time=00:02:24.16 bitrate=N/A    frame= 4419 fps= 33 q=0.0 size=N/A time=00:02:25.20 bitrate=N/A    frame= 4449 fps= 33 q=0.0 size=N/A time=00:02:26.20 bitrate=N/A    frame= 4481 fps= 33 q=0.0 size=N/A time=00:02:27.26 bitrate=N/A    frame= 4484 fps= 32 q=0.0 size=N/A time=00:02:27.36 bitrate=N/A    frame= 4506 fps= 32 q=0.0 size=N/A time=00:02:28.10 bitrate=N/A    frame= 4536 fps= 33 q=0.0 size=N/A time=00:02:29.10 bitrate=N/A    frame= 4566 fps= 33 q=0.0 size=N/A time=00:02:30.10 bitrate=N/A    frame= 4596 fps= 33 q=0.0 size=N/A time=00:02:31.10 bitrate=N/A    frame= 4625 fps= 33 q=0.0 size=N/A time=00:02:32.06 bitrate=N/A    frame= 4654 fps= 33 q=0.0 size=N/A time=00:02:33.03 bitrate=N/A    frame= 4665 fps= 32 q=0.0 size=N/A time=00:02:33.40 bitrate=N/A    frame= 4687 fps= 32 q=0.0 size=N/A time=00:02:34.13 bitrate=N/A    frame= 4717 fps= 32 q=0.0 size=N/A time=00:02:35.13 bitrate=N/A    frame= 4748 fps= 33 q=0.0 size=N/A time=00:02:36.16 bitrate=N/A    frame= 4780 fps= 33 q=0.0 size=N/A time=00:02:37.23 bitrate=N/A    frame= 4811 fps= 33 q=0.0 size=N/A time=00:02:38.26 bitrate=N/A    frame= 4843 fps= 33 q=0.0 size=N/A time=00:02:39.33 bitrate=N/A    frame= 4844 fps= 32 q=0.0 size=N/A time=00:02:39.36 bitrate=N/A    frame= 4866 fps= 32 q=0.0 size=N/A time=00:02:40.10 bitrate=N/A    frame= 4896 fps= 32 q=0.0 size=N/A time=00:02:41.10 bitrate=N/A    frame= 4929 fps= 32 q=0.0 size=N/A time=00:02:42.20 bitrate=N/A    frame= 4961 fps= 32 q=0.0 size=N/A time=00:02:43.26 bitrate=N/A    frame= 4993 fps= 33 q=0.0 size=N/A time=00:02:44.33 bitrate=N/A    frame= 5025 fps= 33 q=0.0 size=N/A time=00:02:45.40 bitrate=N/A    frame= 5042 fps= 33 q=0.0 size=N/A time=00:02:45.96 bitrate=N/A    frame= 5073 fps= 33 q=0.0 size=N/A time=00:02:47.00 bitrate=N/A    frame= 5106 fps= 33 q=0.0 size=N/A time=00:02:48.10 bitrate=N/A    frame= 5135 fps= 33 q=0.0 size=N/A time=00:02:49.06 bitrate=N/A    frame= 5168 fps= 33 q=0.0 size=N/A time=00:02:50.16 bitrate=N/A    frame= 5200 fps= 33 q=0.0 size=N/A time=00:02:51.23 bitrate=N/A    frame= 5206 fps= 33 q=0.0 size=N/A time=00:02:51.43 bitrate=N/A    frame= 5234 fps= 33 q=0.0 size=N/A time=00:02:52.36 bitrate=N/A    frame= 5267 fps= 33 q=0.0 size=N/A time=00:02:53.46 bitrate=N/A    frame= 5299 fps= 33 q=0.0 size=N/A time=00:02:54.53 bitrate=N/A    frame= 5330 fps= 33 q=0.0 size=N/A time=00:02:55.56 bitrate=N/A    frame= 5362 fps= 33 q=0.0 size=N/A time=00:02:56.63 bitrate=N/A    frame= 5385 fps= 33 q=0.0 size=N/A time=00:02:57.40 bitrate=N/A    frame= 5400 fps= 33 q=0.0 size=N/A time=00:02:57.90 bitrate=N/A    frame= 5433 fps= 33 q=0.0 size=N/A time=00:02:59.00 bitrate=N/A    frame= 5465 fps= 33 q=0.0 size=N/A time=00:03:00.06 bitrate=N/A    frame= 5497 fps= 33 q=0.0 size=N/A time=00:03:01.13 bitrate=N/A    frame= 5528 fps= 33 q=0.0 size=N/A time=00:03:02.16 bitrate=N/A    frame= 5560 fps= 33 q=0.0 size=N/A time=00:03:03.23 bitrate=N/A    frame= 5564 fps= 33 q=0.0 size=N/A time=00:03:03.36 bitrate=N/A    frame= 5586 fps= 33 q=0.0 size=N/A time=00:03:04.10 bitrate=N/A    frame= 5618 fps= 33 q=0.0 size=N/A time=00:03:05.16 bitrate=N/A    frame= 5650 fps= 33 q=0.0 size=N/A time=00:03:06.23 bitrate=N/A    frame= 5682 fps= 33 q=0.0 size=N/A time=00:03:07.30 bitrate=N/A    frame= 5711 fps= 33 q=0.0 size=N/A time=00:03:08.26 bitrate=N/A    frame= 5741 fps= 33 q=0.0 size=N/A time=00:03:09.26 bitrate=N/A    frame= 5745 fps= 33 q=0.0 size=N/A time=00:03:09.40 bitrate=N/A    frame= 5765 fps= 33 q=0.0 size=N/A time=00:03:10.06 bitrate=N/A    frame= 5799 fps= 33 q=0.0 size=N/A time=00:03:11.20 bitrate=N/A    frame= 5829 fps= 33 q=0.0 size=N/A time=00:03:12.20 bitrate=N/A    frame= 5862 fps= 33 q=0.0 size=N/A time=00:03:13.30 bitrate=N/A    frame= 5892 fps= 33 q=0.0 size=N/A time=00:03:14.30 bitrate=N/A    frame= 5924 fps= 33 q=0.0 size=N/A time=00:03:15.36 bitrate=N/A    frame= 5924 fps= 33 q=0.0 size=N/A time=00:03:15.36 bitrate=N/A    frame= 5947 fps= 33 q=0.0 size=N/A time=00:03:16.13 bitrate=N/A    frame= 5978 fps= 33 q=0.0 size=N/A time=00:03:17.16 bitrate=N/A    frame= 6010 fps= 33 q=0.0 size=N/A time=00:03:18.23 bitrate=N/A    frame= 6042 fps= 33 q=0.0 size=N/A time=00:03:19.30 bitrate=N/A    frame= 6073 fps= 33 q=0.0 size=N/A time=00:03:20.33 bitrate=N/A    frame= 6105 fps= 32 q=0.0 size=N/A time=00:03:21.40 bitrate=N/A    frame= 6120 fps= 32 q=0.0 size=N/A time=00:03:21.90 bitrate=N/A    frame= 6150 fps= 32 q=0.0 size=N/A time=00:03:22.90 bitrate=N/A    frame= 6180 fps= 33 q=0.0 size=N/A time=00:03:23.90 bitrate=N/A    frame= 6212 fps= 33 q=0.0 size=N/A time=00:03:24.96 bitrate=N/A    frame= 6243 fps= 33 q=0.0 size=N/A time=00:03:26.00 bitrate=N/A    frame= 6274 fps= 33 q=0.0 size=N/A time=00:03:27.03 bitrate=N/A    frame= 6284 fps= 32 q=0.0 size=N/A time=00:03:27.36 bitrate=N/A    frame= 6297 fps= 32 q=0.0 size=N/A time=00:03:27.80 bitrate=N/A    frame= 6327 fps= 32 q=0.0 size=N/A time=00:03:28.80 bitrate=N/A    frame= 6356 fps= 32 q=0.0 size=N/A time=00:03:29.76 bitrate=N/A    frame= 6387 fps= 32 q=0.0 size=N/A time=00:03:30.80 bitrate=N/A    frame= 6418 fps= 33 q=0.0 size=N/A time=00:03:31.83 bitrate=N/A    frame= 6445 fps= 33 q=0.0 size=N/A time=00:03:32.73 bitrate=N/A    frame= 6465 fps= 32 q=0.0 size=N/A time=00:03:33.40 bitrate=N/A    frame= 6482 fps= 32 q=0.0 size=N/A time=00:03:33.96 bitrate=N/A    frame= 6511 fps= 32 q=0.0 size=N/A time=00:03:34.93 bitrate=N/A    frame= 6543 fps= 32 q=0.0 size=N/A time=00:03:36.00 bitrate=N/A    frame= 6574 fps= 32 q=0.0 size=N/A time=00:03:37.03 bitrate=N/A    frame= 6605 fps= 32 q=0.0 size=N/A time=00:03:38.06 bitrate=N/A    frame= 6637 fps= 33 q=0.0 size=N/A time=00:03:39.13 bitrate=N/A    frame= 6644 fps= 32 q=0.0 size=N/A time=00:03:39.36 bitrate=N/A    frame= 6660 fps= 32 q=0.0 size=N/A time=00:03:39.90 bitrate=N/A    frame= 6689 fps= 32 q=0.0 size=N/A time=00:03:40.86 bitrate=N/A    frame= 6719 fps= 32 q=0.0 size=N/A time=00:03:41.86 bitrate=N/A    frame= 6752 fps= 32 q=0.0 size=N/A time=00:03:42.96 bitrate=N/A    frame= 6782 fps= 32 q=0.0 size=N/A time=00:03:43.96 bitrate=N/A    frame= 6813 fps= 32 q=0.0 size=N/A time=00:03:45.00 bitrate=N/A    frame= 6825 fps= 32 q=0.0 size=N/A time=00:03:45.40 bitrate=N/A    frame= 6840 fps= 32 q=0.0 size=N/A time=00:03:45.90 bitrate=N/A    frame= 6871 fps= 32 q=0.0 size=N/A time=00:03:46.93 bitrate=N/A    frame= 6902 fps= 32 q=0.0 size=N/A time=00:03:47.96 bitrate=N/A    frame= 6932 fps= 32 q=0.0 size=N/A time=00:03:48.96 bitrate=N/A    frame= 6963 fps= 32 q=0.0 size=N/A time=00:03:50.00 bitrate=N/A    frame= 6995 fps= 32 q=0.0 size=N/A time=00:03:51.06 bitrate=N/A    frame= 7004 fps= 32 q=0.0 size=N/A time=00:03:51.36 bitrate=N/A    frame= 7020 fps= 32 q=0.0 size=N/A time=00:03:51.90 bitrate=N/A    frame= 7050 fps= 32 q=0.0 size=N/A time=00:03:52.90 bitrate=N/A    frame= 7081 fps= 32 q=0.0 size=N/A time=00:03:53.93 bitrate=N/A    frame= 7110 fps= 32 q=0.0 size=N/A time=00:03:54.90 bitrate=N/A    frame= 7141 fps= 32 q=0.0 size=N/A time=00:03:55.93 bitrate=N/A    frame= 7171 fps= 32 q=0.0 size=N/A time=00:03:56.93 bitrate=N/A    frame= 7185 fps= 32 q=0.0 size=N/A time=00:03:57.40 bitrate=N/A    frame= 7200 fps= 32 q=0.0 size=N/A time=00:03:57.90 bitrate=N/A    frame= 7231 fps= 32 q=0.0 size=N/A time=00:03:58.93 bitrate=N/A    frame= 7263 fps= 32 q=0.0 size=N/A time=00:04:00.00 bitrate=N/A    frame= 7292 fps= 32 q=0.0 size=N/A time=00:04:00.96 bitrate=N/A    frame= 7320 fps= 32 q=0.0 size=N/A time=00:04:01.90 bitrate=N/A    frame= 7351 fps= 32 q=0.0 size=N/A time=00:04:02.93 bitrate=N/A    frame= 7364 fps= 32 q=0.0 size=N/A time=00:04:03.36 bitrate=N/A    frame= 7381 fps= 32 q=0.0 size=N/A time=00:04:03.93 bitrate=N/A    frame= 7412 fps= 32 q=0.0 size=N/A time=00:04:04.96 bitrate=N/A    frame= 7443 fps= 32 q=0.0 size=N/A time=00:04:06.00 bitrate=N/A    frame= 7475 fps= 32 q=0.0 size=N/A time=00:04:07.06 bitrate=N/A    frame= 7507 fps= 32 q=0.0 size=N/A time=00:04:08.13 bitrate=N/A    frame= 7538 fps= 32 q=0.0 size=N/A time=00:04:09.16 bitrate=N/A    frame= 7545 fps= 32 q=0.0 size=N/A time=00:04:09.40 bitrate=N/A    frame= 7562 fps= 32 q=0.0 size=N/A time=00:04:09.96 bitrate=N/A    frame= 7591 fps= 32 q=0.0 size=N/A time=00:04:10.93 bitrate=N/A    frame= 7623 fps= 32 q=0.0 size=N/A time=00:04:12.00 bitrate=N/A    frame= 7655 fps= 32 q=0.0 size=N/A time=00:04:13.06 bitrate=N/A    frame= 7685 fps= 32 q=0.0 size=N/A time=00:04:14.06 bitrate=N/A    frame= 7715 fps= 32 q=0.0 size=N/A time=00:04:15.06 bitrate=N/A    frame= 7724 fps= 32 q=0.0 size=N/A time=00:04:15.36 bitrate=N/A    frame= 7744 fps= 32 q=0.0 size=N/A time=00:04:16.03 bitrate=N/A    frame= 7775 fps= 32 q=0.0 size=N/A time=00:04:17.06 bitrate=N/A    frame= 7806 fps= 32 q=0.0 size=N/A time=00:04:18.10 bitrate=N/A    frame= 7830 fps= 32 q=0.0 size=N/A time=00:04:18.90 bitrate=N/A    frame= 7862 fps= 32 q=0.0 size=N/A time=00:04:19.96 bitrate=N/A    frame= 7891 fps= 32 q=0.0 size=N/A time=00:04:20.93 bitrate=N/A    frame= 7905 fps= 32 q=0.0 size=N/A time=00:04:21.40 bitrate=N/A    frame= 7920 fps= 32 q=0.0 size=N/A time=00:04:21.90 bitrate=N/A    frame= 7950 fps= 32 q=0.0 size=N/A time=00:04:22.90 bitrate=N/A    frame= 7980 fps= 32 q=0.0 size=N/A time=00:04:23.90 bitrate=N/A    frame= 8009 fps= 32 q=0.0 size=N/A time=00:04:24.86 bitrate=N/A    frame= 8040 fps= 32 q=0.0 size=N/A time=00:04:25.90 bitrate=N/A    frame= 8071 fps= 32 q=0.0 size=N/A time=00:04:26.93 bitrate=N/A    frame= 8084 fps= 31 q=0.0 size=N/A time=00:04:27.36 bitrate=N/A    frame= 8101 fps= 31 q=0.0 size=N/A time=00:04:27.93 bitrate=N/A    frame= 8132 fps= 32 q=0.0 size=N/A time=00:04:28.96 bitrate=N/A    frame= 8161 fps= 32 q=0.0 size=N/A time=00:04:29.93 bitrate=N/A    frame= 8193 fps= 32 q=0.0 size=N/A time=00:04:31.00 bitrate=N/A    frame= 8224 fps= 32 q=0.0 size=N/A time=00:04:32.03 bitrate=N/A    frame= 8256 fps= 32 q=0.0 size=N/A time=00:04:33.10 bitrate=N/A    frame= 8265 fps= 31 q=0.0 size=N/A time=00:04:33.40 bitrate=N/A    frame= 8280 fps= 31 q=0.0 size=N/A time=00:04:33.90 bitrate=N/A    frame= 8311 fps= 31 q=0.0 size=N/A time=00:04:34.93 bitrate=N/A    frame= 8343 fps= 32 q=0.0 size=N/A time=00:04:36.00 bitrate=N/A    frame= 8375 fps= 32 q=0.0 size=N/A time=00:04:37.06 bitrate=N/A    frame= 8406 fps= 32 q=0.0 size=N/A time=00:04:38.10 bitrate=N/A    frame= 8438 fps= 32 q=0.0 size=N/A time=00:04:39.16 bitrate=N/A    frame= 8444 fps= 31 q=0.0 size=N/A time=00:04:39.36 bitrate=N/A    frame= 8460 fps= 31 q=0.0 size=N/A time=00:04:39.90 bitrate=N/A    frame= 8490 fps= 31 q=0.0 size=N/A time=00:04:40.90 bitrate=N/A    frame= 8521 fps= 31 q=0.0 size=N/A time=00:04:41.93 bitrate=N/A    frame= 8553 fps= 32 q=0.0 size=N/A time=00:04:43.00 bitrate=N/A    frame= 8584 fps= 32 q=0.0 size=N/A time=00:04:44.03 bitrate=N/A    frame= 8614 fps= 32 q=0.0 size=N/A time=00:04:45.03 bitrate=N/A    frame= 8625 fps= 31 q=0.0 size=N/A time=00:04:45.40 bitrate=N/A    frame= 8640 fps= 31 q=0.0 size=N/A time=00:04:45.90 bitrate=N/A    frame= 8671 fps= 31 q=0.0 size=N/A time=00:04:46.93 bitrate=N/A    frame= 8702 fps= 31 q=0.0 size=N/A time=00:04:47.96 bitrate=N/A    frame= 8732 fps= 31 q=0.0 size=N/A time=00:04:48.96 bitrate=N/A    frame= 8763 fps= 32 q=0.0 size=N/A time=00:04:50.00 bitrate=N/A    frame= 8795 fps= 32 q=0.0 size=N/A time=00:04:51.06 bitrate=N/A    frame= 8804 fps= 31 q=0.0 size=N/A time=00:04:51.36 bitrate=N/A    frame= 8820 fps= 31 q=0.0 size=N/A time=00:04:51.90 bitrate=N/A    frame= 8850 fps= 31 q=0.0 size=N/A time=00:04:52.90 bitrate=N/A    frame= 8881 fps= 31 q=0.0 size=N/A time=00:04:53.93 bitrate=N/A    frame= 8913 fps= 31 q=0.0 size=N/A time=00:04:55.00 bitrate=N/A    frame= 8942 fps= 31 q=0.0 size=N/A time=00:04:55.96 bitrate=N/A    frame= 8973 fps= 32 q=0.0 size=N/A time=00:04:57.00 bitrate=N/A    frame= 8985 fps= 31 q=0.0 size=N/A time=00:04:57.40 bitrate=N/A    frame= 8999 fps= 31 q=0.0 size=N/A time=00:04:57.86 bitrate=N/A    frame= 9031 fps= 31 q=0.0 size=N/A time=00:04:58.93 bitrate=N/A    frame= 9062 fps= 31 q=0.0 size=N/A time=00:04:59.96 bitrate=N/A    frame= 9092 fps= 31 q=0.0 size=N/A time=00:05:00.96 bitrate=N/A    frame= 9123 fps= 31 q=0.0 size=N/A time=00:05:02.00 bitrate=N/A    frame= 9154 fps= 31 q=0.0 size=N/A time=00:05:03.03 bitrate=N/A    frame= 9164 fps= 31 q=0.0 size=N/A time=00:05:03.36 bitrate=N/A    frame= 9181 fps= 31 q=0.0 size=N/A time=00:05:03.93 bitrate=N/A    frame= 9213 fps= 31 q=0.0 size=N/A time=00:05:05.00 bitrate=N/A    frame= 9244 fps= 31 q=0.0 size=N/A time=00:05:06.03 bitrate=N/A    frame= 9275 fps= 31 q=0.0 size=N/A time=00:05:07.06 bitrate=N/A    frame= 9307 fps= 31 q=0.0 size=N/A time=00:05:08.13 bitrate=N/A    frame= 9336 fps= 31 q=0.0 size=N/A time=00:05:09.10 bitrate=N/A    frame= 9345 fps= 31 q=0.0 size=N/A time=00:05:09.40 bitrate=N/A    frame= 9360 fps= 31 q=0.0 size=N/A time=00:05:09.90 bitrate=N/A    frame= 9391 fps= 31 q=0.0 size=N/A time=00:05:10.93 bitrate=N/A    frame= 9423 fps= 31 q=0.0 size=N/A time=00:05:12.00 bitrate=N/A    frame= 9455 fps= 31 q=0.0 size=N/A time=00:05:13.06 bitrate=N/A    frame= 9483 fps= 31 q=0.0 size=N/A time=00:05:14.00 bitrate=N/A    frame= 9515 fps= 31 q=0.0 size=N/A time=00:05:15.06 bitrate=N/A    frame= 9524 fps= 31 q=0.0 size=N/A time=00:05:15.36 bitrate=N/A    frame= 9540 fps= 31 q=0.0 size=N/A time=00:05:15.90 bitrate=N/A    frame= 9570 fps= 31 q=0.0 size=N/A time=00:05:16.90 bitrate=N/A    frame= 9601 fps= 31 q=0.0 size=N/A time=00:05:17.93 bitrate=N/A    frame= 9633 fps= 31 q=0.0 size=N/A time=00:05:19.00 bitrate=N/A    frame= 9665 fps= 31 q=0.0 size=N/A time=00:05:20.06 bitrate=N/A    frame= 9698 fps= 31 q=0.0 size=N/A time=00:05:21.16 bitrate=N/A    frame= 9713 fps= 31 q=0.0 size=N/A time=00:05:21.66 bitrate=N/A    frame= 9743 fps= 31 q=0.0 size=N/A time=00:05:22.66 bitrate=N/A    frame= 9774 fps= 31 q=0.0 size=N/A time=00:05:23.70 bitrate=N/A    frame= 9803 fps= 31 q=0.0 size=N/A time=00:05:24.66 bitrate=N/A    frame= 9832 fps= 31 q=0.0 size=N/A time=00:05:25.63 bitrate=N/A    frame= 9863 fps= 32 q=0.0 size=N/A time=00:05:26.66 bitrate=N/A    frame= 9884 fps= 32 q=0.0 size=N/A time=00:05:27.36 bitrate=N/A    frame= 9906 fps= 32 q=0.0 size=N/A time=00:05:28.10 bitrate=N/A    frame= 9936 fps= 32 q=0.0 size=N/A time=00:05:29.10 bitrate=N/A    frame= 9967 fps= 32 q=0.0 size=N/A time=00:05:30.13 bitrate=N/A    frame= 9999 fps= 32 q=0.0 size=N/A time=00:05:31.20 bitrate=N/A    frame=10031 fps= 32 q=0.0 size=N/A time=00:05:32.26 bitrate=N/A    frame=10062 fps= 32 q=0.0 size=N/A time=00:05:33.30 bitrate=N/A    frame=10065 fps= 31 q=0.0 size=N/A time=00:05:33.40 bitrate=N/A    frame=10085 fps= 32 q=0.0 size=N/A time=00:05:34.06 bitrate=N/A    frame=10114 fps= 32 q=0.0 size=N/A time=00:05:35.03 bitrate=N/A    frame=10146 fps= 32 q=0.0 size=N/A time=00:05:36.10 bitrate=N/A    frame=10177 fps= 32 q=0.0 size=N/A time=00:05:37.13 bitrate=N/A    frame=10209 fps= 32 q=0.0 size=N/A time=00:05:38.20 bitrate=N/A    frame=10241 fps= 32 q=0.0 size=N/A time=00:05:39.26 bitrate=N/A    frame=10244 fps= 31 q=0.0 size=N/A time=00:05:39.36 bitrate=N/A    frame=10261 fps= 31 q=0.0 size=N/A time=00:05:39.93 bitrate=N/A    frame=10290 fps= 31 q=0.0 size=N/A time=00:05:40.90 bitrate=N/A    frame=10321 fps= 32 q=0.0 size=N/A time=00:05:41.93 bitrate=N/A    frame=10353 fps= 32 q=0.0 size=N/A time=00:05:43.00 bitrate=N/A    frame=10385 fps= 32 q=0.0 size=N/A time=00:05:44.06 bitrate=N/A    frame=10416 fps= 32 q=0.0 size=N/A time=00:05:45.10 bitrate=N/A    frame=10425 fps= 31 q=0.0 size=N/A time=00:05:45.40 bitrate=N/A    frame=10445 fps= 31 q=0.0 size=N/A time=00:05:46.06 bitrate=N/A    frame=10477 fps= 31 q=0.0 size=N/A time=00:05:47.13 bitrate=N/A    frame=10508 fps= 32 q=0.0 size=N/A time=00:05:48.16 bitrate=N/A    frame=10537 fps= 32 q=0.0 size=N/A time=00:05:49.13 bitrate=N/A    frame=10568 fps= 32 q=0.0 size=N/A time=00:05:50.16 bitrate=N/A    frame=10598 fps= 32 q=0.0 size=N/A time=00:05:51.16 bitrate=N/A    frame=10604 fps= 31 q=0.0 size=N/A time=00:05:51.36 bitrate=N/A    frame=10626 fps= 31 q=0.0 size=N/A time=00:05:52.10 bitrate=N/A    frame=10656 fps= 31 q=0.0 size=N/A time=00:05:53.10 bitrate=N/A    frame=10684 fps= 31 q=0.0 size=N/A time=00:05:54.03 bitrate=N/A    frame=10715 fps= 31 q=0.0 size=N/A time=00:05:55.06 bitrate=N/A    frame=10747 fps= 32 q=0.0 size=N/A time=00:05:56.13 bitrate=N/A    frame=10779 fps= 32 q=0.0 size=N/A time=00:05:57.20 bitrate=N/A    frame=10785 fps= 31 q=0.0 size=N/A time=00:05:57.40 bitrate=N/A    frame=10805 fps= 31 q=0.0 size=N/A time=00:05:58.06 bitrate=N/A    frame=10837 fps= 31 q=0.0 size=N/A time=00:05:59.13 bitrate=N/A    frame=10869 fps= 31 q=0.0 size=N/A time=00:06:00.20 bitrate=N/A    frame=10900 fps= 31 q=0.0 size=N/A time=00:06:01.23 bitrate=N/A    frame=10932 fps= 32 q=0.0 size=N/A time=00:06:02.30 bitrate=N/A    frame=10964 fps= 32 q=0.0 size=N/A time=00:06:03.36 bitrate=N/A    frame=10964 fps= 31 q=0.0 size=N/A time=00:06:03.36 bitrate=N/A    frame=10986 fps= 31 q=0.0 size=N/A time=00:06:04.10 bitrate=N/A    frame=11016 fps= 31 q=0.0 size=N/A time=00:06:05.10 bitrate=N/A    frame=11047 fps= 31 q=0.0 size=N/A time=00:06:06.13 bitrate=N/A    frame=11076 fps= 31 q=0.0 size=N/A time=00:06:07.10 bitrate=N/A    frame=11107 fps= 31 q=0.0 size=N/A time=00:06:08.13 bitrate=N/A    frame=11138 fps= 31 q=0.0 size=N/A time=00:06:09.16 bitrate=N/A    frame=11145 fps= 31 q=0.0 size=N/A time=00:06:09.40 bitrate=N/A    frame=11165 fps= 31 q=0.0 size=N/A time=00:06:10.06 bitrate=N/A    frame=11196 fps= 31 q=0.0 size=N/A time=00:06:11.10 bitrate=N/A    frame=11228 fps= 31 q=0.0 size=N/A time=00:06:12.16 bitrate=N/A    frame=11260 fps= 31 q=0.0 size=N/A time=00:06:13.23 bitrate=N/A    frame=11292 fps= 31 q=0.0 size=N/A time=00:06:14.30 bitrate=N/A    frame=11324 fps= 31 q=0.0 size=N/A time=00:06:15.36 bitrate=N/A    frame=11324 fps= 31 q=0.0 size=N/A time=00:06:15.36 bitrate=N/A    frame=11346 fps= 31 q=0.0 size=N/A time=00:06:16.10 bitrate=N/A    frame=11376 fps= 31 q=0.0 size=N/A time=00:06:17.10 bitrate=N/A    frame=11407 fps= 31 q=0.0 size=N/A time=00:06:18.13 bitrate=N/A    frame=11439 fps= 31 q=0.0 size=N/A time=00:06:19.20 bitrate=N/A    frame=11471 fps= 31 q=0.0 size=N/A time=00:06:20.26 bitrate=N/A    frame=11504 fps= 31 q=0.0 size=N/A time=00:06:21.36 bitrate=N/A    frame=11505 fps= 31 q=0.0 size=N/A time=00:06:21.40 bitrate=N/A    frame=11525 fps= 31 q=0.0 size=N/A time=00:06:22.06 bitrate=N/A    frame=11557 fps= 31 q=0.0 size=N/A time=00:06:23.13 bitrate=N/A    frame=11589 fps= 31 q=0.0 size=N/A time=00:06:24.20 bitrate=N/A    frame=11623 fps= 31 q=0.0 size=N/A time=00:06:25.33 bitrate=N/A    frame=11655 fps= 31 q=0.0 size=N/A time=00:06:26.40 bitrate=N/A    frame=11684 fps= 31 q=0.0 size=N/A time=00:06:27.36 bitrate=N/A    frame=11706 fps= 31 q=0.0 size=N/A time=00:06:28.10 bitrate=N/A    frame=11736 fps= 31 q=0.0 size=N/A time=00:06:29.10 bitrate=N/A    frame=11769 fps= 31 q=0.0 size=N/A time=00:06:30.20 bitrate=N/A    frame=11801 fps= 31 q=0.0 size=N/A time=00:06:31.26 bitrate=N/A    frame=11831 fps= 31 q=0.0 size=N/A time=00:06:32.26 bitrate=N/A    frame=11862 fps= 31 q=0.0 size=N/A time=00:06:33.30 bitrate=N/A    frame=11865 fps= 31 q=0.0 size=N/A time=00:06:33.40 bitrate=N/A    frame=11887 fps= 31 q=0.0 size=N/A time=00:06:34.13 bitrate=N/A    frame=11917 fps= 31 q=0.0 size=N/A time=00:06:35.13 bitrate=N/A    frame=11946 fps= 31 q=0.0 size=N/A time=00:06:36.10 bitrate=N/A    frame=11977 fps= 31 q=0.0 size=N/A time=00:06:37.13 bitrate=N/A    frame=12009 fps= 31 q=0.0 size=N/A time=00:06:38.20 bitrate=N/A    frame=12041 fps= 31 q=0.0 size=N/A time=00:06:39.26 bitrate=N/A    frame=12044 fps= 31 q=0.0 size=N/A time=00:06:39.36 bitrate=N/A    frame=12066 fps= 31 q=0.0 size=N/A time=00:06:40.10 bitrate=N/A    frame=12098 fps= 31 q=0.0 size=N/A time=00:06:41.16 bitrate=N/A    frame=12130 fps= 31 q=0.0 size=N/A time=00:06:42.23 bitrate=N/A    frame=12161 fps= 31 q=0.0 size=N/A time=00:06:43.26 bitrate=N/A    frame=12190 fps= 31 q=0.0 size=N/A time=00:06:44.23 bitrate=N/A    frame=12221 fps= 31 q=0.0 size=N/A time=00:06:45.26 bitrate=N/A    frame=12225 fps= 31 q=0.0 size=N/A time=00:06:45.40 bitrate=N/A    frame=12242 fps= 31 q=0.0 size=N/A time=00:06:45.96 bitrate=N/A    frame=12274 fps= 31 q=0.0 size=N/A time=00:06:47.03 bitrate=N/A    frame=12300 fps= 31 q=0.0 size=N/A time=00:06:47.90 bitrate=N/A    frame=12332 fps= 31 q=0.0 size=N/A time=00:06:48.96 bitrate=N/A    frame=12363 fps= 31 q=0.0 size=N/A time=00:06:50.00 bitrate=N/A    frame=12395 fps= 31 q=0.0 size=N/A time=00:06:51.06 bitrate=N/A    frame=12404 fps= 31 q=0.0 size=N/A time=00:06:51.36 bitrate=N/A    frame=12427 fps= 31 q=0.0 size=N/A time=00:06:52.13 bitrate=N/A    frame=12458 fps= 31 q=0.0 size=N/A time=00:06:53.16 bitrate=N/A    frame=12490 fps= 31 q=0.0 size=N/A time=00:06:54.23 bitrate=N/A    frame=12519 fps= 31 q=0.0 size=N/A time=00:06:55.20 bitrate=N/A    frame=12551 fps= 31 q=0.0 size=N/A time=00:06:56.26 bitrate=N/A    frame=12582 fps= 31 q=0.0 size=N/A time=00:06:57.30 bitrate=N/A    frame=12585 fps= 31 q=0.0 size=N/A time=00:06:57.40 bitrate=N/A    frame=12608 fps= 31 q=0.0 size=N/A time=00:06:58.16 bitrate=N/A    frame=12637 fps= 31 q=0.0 size=N/A time=00:06:59.13 bitrate=N/A    frame=12669 fps= 31 q=0.0 size=N/A time=00:07:00.20 bitrate=N/A    frame=12700 fps= 31 q=0.0 size=N/A time=00:07:01.23 bitrate=N/A    frame=12731 fps= 31 q=0.0 size=N/A time=00:07:02.26 bitrate=N/A    frame=12761 fps= 31 q=0.0 size=N/A time=00:07:03.26 bitrate=N/A    frame=12764 fps= 31 q=0.0 size=N/A time=00:07:03.36 bitrate=N/A    frame=12786 fps= 31 q=0.0 size=N/A time=00:07:04.10 bitrate=N/A    frame=12816 fps= 31 q=0.0 size=N/A time=00:07:05.10 bitrate=N/A    frame=12847 fps= 31 q=0.0 size=N/A time=00:07:06.13 bitrate=N/A    frame=12879 fps= 31 q=0.0 size=N/A time=00:07:07.20 bitrate=N/A    frame=12907 fps= 31 q=0.0 size=N/A time=00:07:08.13 bitrate=N/A    frame=12939 fps= 31 q=0.0 size=N/A time=00:07:09.20 bitrate=N/A    frame=12945 fps= 31 q=0.0 size=N/A time=00:07:09.40 bitrate=N/A    frame=12965 fps= 31 q=0.0 size=N/A time=00:07:10.06 bitrate=N/A    frame=12996 fps= 31 q=0.0 size=N/A time=00:07:11.10 bitrate=N/A    frame=13020 fps= 31 q=0.0 size=N/A time=00:07:11.90 bitrate=N/A    frame=13049 fps= 31 q=0.0 size=N/A time=00:07:12.86 bitrate=N/A    frame=13078 fps= 31 q=0.0 size=N/A time=00:07:13.83 bitrate=N/A    frame=13106 fps= 31 q=0.0 size=N/A time=00:07:14.76 bitrate=N/A    frame=13124 fps= 31 q=0.0 size=N/A time=00:07:15.36 bitrate=N/A    frame=13146 fps= 31 q=0.0 size=N/A time=00:07:16.10 bitrate=N/A    frame=13178 fps= 31 q=0.0 size=N/A time=00:07:17.16 bitrate=N/A    frame=13210 fps= 31 q=0.0 size=N/A time=00:07:18.23 bitrate=N/A    frame=13242 fps= 31 q=0.0 size=N/A time=00:07:19.30 bitrate=N/A    frame=13275 fps= 31 q=0.0 size=N/A time=00:07:20.40 bitrate=N/A    frame=13305 fps= 31 q=0.0 size=N/A time=00:07:21.40 bitrate=N/A    frame=13328 fps= 31 q=0.0 size=N/A time=00:07:22.16 bitrate=N/A    frame=13360 fps= 31 q=0.0 size=N/A time=00:07:23.23 bitrate=N/A    frame=13392 fps= 31 q=0.0 size=N/A time=00:07:24.30 bitrate=N/A    frame=13425 fps= 31 q=0.0 size=N/A time=00:07:25.40 bitrate=N/A    frame=13457 fps= 31 q=0.0 size=N/A time=00:07:26.46 bitrate=N/A    frame=13484 fps= 31 q=0.0 size=N/A time=00:07:27.36 bitrate=N/A    frame=13507 fps= 31 q=0.0 size=N/A time=00:07:28.13 bitrate=N/A    frame=13538 fps= 31 q=0.0 size=N/A time=00:07:29.16 bitrate=N/A    frame=13569 fps= 31 q=0.0 size=N/A time=00:07:30.20 bitrate=N/A    frame=13601 fps= 31 q=0.0 size=N/A time=00:07:31.26 bitrate=N/A    frame=13631 fps= 31 q=0.0 size=N/A time=00:07:32.26 bitrate=N/A    frame=13664 fps= 31 q=0.0 size=N/A time=00:07:33.36 bitrate=N/A    frame=13665 fps= 31 q=0.0 size=N/A time=00:07:33.40 bitrate=N/A    frame=13685 fps= 31 q=0.0 size=N/A time=00:07:34.06 bitrate=N/A    frame=13717 fps= 31 q=0.0 size=N/A time=00:07:35.13 bitrate=N/A    frame=13749 fps= 31 q=0.0 size=N/A time=00:07:36.20 bitrate=N/A    frame=13780 fps= 31 q=0.0 size=N/A time=00:07:37.23 bitrate=N/A    frame=13809 fps= 31 q=0.0 size=N/A time=00:07:38.20 bitrate=N/A    frame=13841 fps= 31 q=0.0 size=N/A time=00:07:39.26 bitrate=N/A    frame=13844 fps= 31 q=0.0 size=N/A time=00:07:39.36 bitrate=N/A    frame=13866 fps= 31 q=0.0 size=N/A time=00:07:40.10 bitrate=N/A    frame=13896 fps= 31 q=0.0 size=N/A time=00:07:41.10 bitrate=N/A    frame=13924 fps= 31 q=0.0 size=N/A time=00:07:42.03 bitrate=N/A    frame=13956 fps= 31 q=0.0 size=N/A time=00:07:43.10 bitrate=N/A    frame=13985 fps= 31 q=0.0 size=N/A time=00:07:44.06 bitrate=N/A    frame=14019 fps= 31 q=0.0 size=N/A time=00:07:45.20 bitrate=N/A    frame=14025 fps= 31 q=0.0 size=N/A time=00:07:45.40 bitrate=N/A    frame=14045 fps= 31 q=0.0 size=N/A time=00:07:46.06 bitrate=N/A    frame=14077 fps= 31 q=0.0 size=N/A time=00:07:47.13 bitrate=N/A    frame=14109 fps= 31 q=0.0 size=N/A time=00:07:48.20 bitrate=N/A    frame=14139 fps= 31 q=0.0 size=N/A time=00:07:49.20 bitrate=N/A    frame=14171 fps= 31 q=0.0 size=N/A time=00:07:50.26 bitrate=N/A    frame=14203 fps= 31 q=0.0 size=N/A time=00:07:51.33 bitrate=N/A    frame=14204 fps= 31 q=0.0 size=N/A time=00:07:51.36 bitrate=N/A    frame=14226 fps= 31 q=0.0 size=N/A time=00:07:52.10 bitrate=N/A    frame=14258 fps= 31 q=0.0 size=N/A time=00:07:53.16 bitrate=N/A    frame=14290 fps= 31 q=0.0 size=N/A time=00:07:54.23 bitrate=N/A    frame=14321 fps= 31 q=0.0 size=N/A time=00:07:55.26 bitrate=N/A    frame=14353 fps= 31 q=0.0 size=N/A time=00:07:56.33 bitrate=N/A    frame=14384 fps= 31 q=0.0 size=N/A time=00:07:57.36 bitrate=N/A    frame=14385 fps= 31 q=0.0 size=N/A time=00:07:57.40 bitrate=N/A    frame=14405 fps= 31 q=0.0 size=N/A time=00:07:58.06 bitrate=N/A    frame=14437 fps= 31 q=0.0 size=N/A time=00:07:59.13 bitrate=N/A    frame=14468 fps= 31 q=0.0 size=N/A time=00:08:00.16 bitrate=N/A    frame=14497 fps= 31 q=0.0 size=N/A time=00:08:01.13 bitrate=N/A    frame=14529 fps= 31 q=0.0 size=N/A time=00:08:02.20 bitrate=N/A    frame=14558 fps= 31 q=0.0 size=N/A time=00:08:03.16 bitrate=N/A    frame=14564 fps= 31 q=0.0 size=N/A time=00:08:03.36 bitrate=N/A    frame=14584 fps= 31 q=0.0 size=N/A time=00:08:04.03 bitrate=N/A    frame=14616 fps= 31 q=0.0 size=N/A time=00:08:05.10 bitrate=N/A    frame=14647 fps= 31 q=0.0 size=N/A time=00:08:06.13 bitrate=N/A    frame=14679 fps= 31 q=0.0 size=N/A time=00:08:07.20 bitrate=N/A    frame=14710 fps= 31 q=0.0 size=N/A time=00:08:08.23 bitrate=N/A    frame=14742 fps= 31 q=0.0 size=N/A time=00:08:09.30 bitrate=N/A    frame=14754 fps= 31 q=0.0 size=N/A time=00:08:09.70 bitrate=N/A    frame=14783 fps= 31 q=0.0 size=N/A time=00:08:10.66 bitrate=N/A    frame=14816 fps= 31 q=0.0 size=N/A time=00:08:11.76 bitrate=N/A    frame=14849 fps= 31 q=0.0 size=N/A time=00:08:12.86 bitrate=N/A    frame=14880 fps= 31 q=0.0 size=N/A time=00:08:13.90 bitrate=N/A    frame=14911 fps= 31 q=0.0 size=N/A time=00:08:14.93 bitrate=N/A    frame=14926 fps= 31 q=0.0 size=N/A time=00:08:15.43 bitrate=N/A    frame=14955 fps= 31 q=0.0 size=N/A time=00:08:16.40 bitrate=N/A    frame=14987 fps= 31 q=0.0 size=N/A time=00:08:17.46 bitrate=N/A    frame=15019 fps= 31 q=0.0 size=N/A time=00:08:18.53 bitrate=N/A    frame=15053 fps= 31 q=0.0 size=N/A time=00:08:19.66 bitrate=N/A    frame=15085 fps= 31 q=0.0 size=N/A time=00:08:20.73 bitrate=N/A    frame=15105 fps= 31 q=0.0 size=N/A time=00:08:21.40 bitrate=N/A    frame=15122 fps= 31 q=0.0 size=N/A time=00:08:21.96 bitrate=N/A    frame=15151 fps= 31 q=0.0 size=N/A time=00:08:22.93 bitrate=N/A    frame=15183 fps= 31 q=0.0 size=N/A time=00:08:24.00 bitrate=N/A    frame=15217 fps= 31 q=0.0 size=N/A time=00:08:25.13 bitrate=N/A    frame=15248 fps= 31 q=0.0 size=N/A time=00:08:26.16 bitrate=N/A    frame=15281 fps= 31 q=0.0 size=N/A time=00:08:27.26 bitrate=N/A    frame=15284 fps= 31 q=0.0 size=N/A time=00:08:27.36 bitrate=N/A    frame=15303 fps= 31 q=0.0 size=N/A time=00:08:28.00 bitrate=N/A    frame=15327 fps= 31 q=0.0 size=N/A time=00:08:28.80 bitrate=N/A    frame=15356 fps= 31 q=0.0 size=N/A time=00:08:29.76 bitrate=N/A    frame=15387 fps= 31 q=0.0 size=N/A time=00:08:30.80 bitrate=N/A    frame=15419 fps= 31 q=0.0 size=N/A time=00:08:31.86 bitrate=N/A    frame=15453 fps= 31 q=0.0 size=N/A time=00:08:33.00 bitrate=N/A    frame=15465 fps= 31 q=0.0 size=N/A time=00:08:33.40 bitrate=N/A    frame=15487 fps= 31 q=0.0 size=N/A time=00:08:34.13 bitrate=N/A    frame=15519 fps= 31 q=0.0 size=N/A time=00:08:35.20 bitrate=N/A    frame=15551 fps= 31 q=0.0 size=N/A time=00:08:36.26 bitrate=N/A    frame=15582 fps= 31 q=0.0 size=N/A time=00:08:37.30 bitrate=N/A    frame=15609 fps= 31 q=0.0 size=N/A time=00:08:38.20 bitrate=N/A    frame=15635 fps= 31 q=0.0 size=N/A time=00:08:39.06 bitrate=N/A    frame=15644 fps= 31 q=0.0 size=N/A time=00:08:39.36 bitrate=N/A    frame=15666 fps= 31 q=0.0 size=N/A time=00:08:40.10 bitrate=N/A    frame=15697 fps= 31 q=0.0 size=N/A time=00:08:41.13 bitrate=N/A    frame=15727 fps= 31 q=0.0 size=N/A time=00:08:42.13 bitrate=N/A    frame=15756 fps= 31 q=0.0 size=N/A time=00:08:43.10 bitrate=N/A    frame=15787 fps= 31 q=0.0 size=N/A time=00:08:44.13 bitrate=N/A    frame=15818 fps= 31 q=0.0 size=N/A time=00:08:45.16 bitrate=N/A    frame=15825 fps= 31 q=0.0 size=N/A time=00:08:45.40 bitrate=N/A    frame=15845 fps= 31 q=0.0 size=N/A time=00:08:46.06 bitrate=N/A    frame=15874 fps= 31 q=0.0 size=N/A time=00:08:47.03 bitrate=N/A    frame=15905 fps= 31 q=0.0 size=N/A time=00:08:48.06 bitrate=N/A    frame=15935 fps= 31 q=0.0 size=N/A time=00:08:49.06 bitrate=N/A    frame=15965 fps= 31 q=0.0 size=N/A time=00:08:50.06 bitrate=N/A    frame=15995 fps= 31 q=0.0 size=N/A time=00:08:51.06 bitrate=N/A    frame=16004 fps= 31 q=0.0 size=N/A time=00:08:51.36 bitrate=N/A    frame=16024 fps= 31 q=0.0 size=N/A time=00:08:52.03 bitrate=N/A    frame=16055 fps= 31 q=0.0 size=N/A time=00:08:53.06 bitrate=N/A    frame=16086 fps= 31 q=0.0 size=N/A time=00:08:54.10 bitrate=N/A    frame=16116 fps= 31 q=0.0 size=N/A time=00:08:55.10 bitrate=N/A    frame=16145 fps= 31 q=0.0 size=N/A time=00:08:56.06 bitrate=N/A    frame=16176 fps= 31 q=0.0 size=N/A time=00:08:57.10 bitrate=N/A    frame=16185 fps= 31 q=0.0 size=N/A time=00:08:57.40 bitrate=N/A    frame=16205 fps= 31 q=0.0 size=N/A time=00:08:58.06 bitrate=N/A    frame=16237 fps= 31 q=0.0 size=N/A time=00:08:59.13 bitrate=N/A    frame=16266 fps= 31 q=0.0 size=N/A time=00:09:00.10 bitrate=N/A    frame=16297 fps= 31 q=0.0 size=N/A time=00:09:01.13 bitrate=N/A    frame=16326 fps= 31 q=0.0 size=N/A time=00:09:02.10 bitrate=N/A    frame=16355 fps= 31 q=0.0 size=N/A time=00:09:03.06 bitrate=N/A    frame=16364 fps= 31 q=0.0 size=N/A time=00:09:03.36 bitrate=N/A    frame=16386 fps= 31 q=0.0 size=N/A time=00:09:04.10 bitrate=N/A    frame=16413 fps= 31 q=0.0 size=N/A time=00:09:05.00 bitrate=N/A    frame=16444 fps= 31 q=0.0 size=N/A time=00:09:06.03 bitrate=N/A    frame=16473 fps= 31 q=0.0 size=N/A time=00:09:07.00 bitrate=N/A    frame=16504 fps= 31 q=0.0 size=N/A time=00:09:08.03 bitrate=N/A    frame=16534 fps= 31 q=0.0 size=N/A time=00:09:09.03 bitrate=N/A    frame=16545 fps= 31 q=0.0 size=N/A time=00:09:09.40 bitrate=N/A    frame=16564 fps= 31 q=0.0 size=N/A time=00:09:10.03 bitrate=N/A    frame=16596 fps= 31 q=0.0 size=N/A time=00:09:11.10 bitrate=N/A    frame=16622 fps= 31 q=0.0 size=N/A time=00:09:11.96 bitrate=N/A    frame=16652 fps= 31 q=0.0 size=N/A time=00:09:12.96 bitrate=N/A    frame=16682 fps= 31 q=0.0 size=N/A time=00:09:13.96 bitrate=N/A    frame=16712 fps= 31 q=0.0 size=N/A time=00:09:14.96 bitrate=N/A    frame=16724 fps= 31 q=0.0 size=N/A time=00:09:15.36 bitrate=N/A    frame=16744 fps= 31 q=0.0 size=N/A time=00:09:16.03 bitrate=N/A    frame=16773 fps= 31 q=0.0 size=N/A time=00:09:17.00 bitrate=N/A    frame=16801 fps= 31 q=0.0 size=N/A time=00:09:17.93 bitrate=N/A    frame=16827 fps= 31 q=0.0 size=N/A time=00:09:18.80 bitrate=N/A    frame=16855 fps= 31 q=0.0 size=N/A time=00:09:19.73 bitrate=N/A    frame=16885 fps= 31 q=0.0 size=N/A time=00:09:20.73 bitrate=N/A    frame=16905 fps= 31 q=0.0 size=N/A time=00:09:21.40 bitrate=N/A    frame=16927 fps= 31 q=0.0 size=N/A time=00:09:22.13 bitrate=N/A    frame=16957 fps= 31 q=0.0 size=N/A time=00:09:23.13 bitrate=N/A    frame=16986 fps= 31 q=0.0 size=N/A time=00:09:24.10 bitrate=N/A    frame=17017 fps= 31 q=0.0 size=N/A time=00:09:25.13 bitrate=N/A    frame=17049 fps= 31 q=0.0 size=N/A time=00:09:26.20 bitrate=N/A    frame=17080 fps= 31 q=0.0 size=N/A time=00:09:27.23 bitrate=N/A    frame=17084 fps= 31 q=0.0 size=N/A time=00:09:27.36 bitrate=N/A    frame=17106 fps= 31 q=0.0 size=N/A time=00:09:28.10 bitrate=N/A    frame=17138 fps= 31 q=0.0 size=N/A time=00:09:29.16 bitrate=N/A    frame=17170 fps= 31 q=0.0 size=N/A time=00:09:30.23 bitrate=N/A    frame=17202 fps= 31 q=0.0 size=N/A time=00:09:31.30 bitrate=N/A    frame=17233 fps= 31 q=0.0 size=N/A time=00:09:32.33 bitrate=N/A    frame=17265 fps= 31 q=0.0 size=N/A time=00:09:33.40 bitrate=N/A    frame=17285 fps= 31 q=0.0 size=N/A time=00:09:34.06 bitrate=N/A    frame=17316 fps= 31 q=0.0 size=N/A time=00:09:35.10 bitrate=N/A    frame=17346 fps= 31 q=0.0 size=N/A time=00:09:36.10 bitrate=N/A    frame=17380 fps= 31 q=0.0 size=N/A time=00:09:37.23 bitrate=N/A    frame=17411 fps= 31 q=0.0 size=N/A time=00:09:38.26 bitrate=N/A    frame=17441 fps= 31 q=0.0 size=N/A time=00:09:39.26 bitrate=N/A    frame=17444 fps= 31 q=0.0 size=N/A time=00:09:39.36 bitrate=N/A    frame=17467 fps= 31 q=0.0 size=N/A time=00:09:40.13 bitrate=N/A    frame=17500 fps= 31 q=0.0 size=N/A time=00:09:41.23 bitrate=N/A    frame=17532 fps= 31 q=0.0 size=N/A time=00:09:42.30 bitrate=N/A    frame=17564 fps= 31 q=0.0 size=N/A time=00:09:43.36 bitrate=N/A    frame=17596 fps= 31 q=0.0 size=N/A time=00:09:44.43 bitrate=N/A    frame=17625 fps= 31 q=0.0 size=N/A time=00:09:45.40 bitrate=N/A    frame=17645 fps= 31 q=0.0 size=N/A time=00:09:46.06 bitrate=N/A    frame=17677 fps= 31 q=0.0 size=N/A time=00:09:47.13 bitrate=N/A    frame=17709 fps= 31 q=0.0 size=N/A time=00:09:48.20 bitrate=N/A    frame=17742 fps= 31 q=0.0 size=N/A time=00:09:49.30 bitrate=N/A    frame=17775 fps= 31 q=0.0 size=N/A time=00:09:50.40 bitrate=N/A    frame=17804 fps= 31 q=0.0 size=N/A time=00:09:51.36 bitrate=N/A    frame=17827 fps= 31 q=0.0 size=N/A time=00:09:52.13 bitrate=N/A    frame=17858 fps= 31 q=0.0 size=N/A time=00:09:53.16 bitrate=N/A    frame=17887 fps= 31 q=0.0 size=N/A time=00:09:54.13 bitrate=N/A    frame=17918 fps= 31 q=0.0 size=N/A time=00:09:55.16 bitrate=N/A    frame=17945 fps= 31 q=0.0 size=N/A time=00:09:56.06 bitrate=N/A    frame=17976 fps= 31 q=0.0 size=N/A time=00:09:57.10 bitrate=N/A    frame=17985 fps= 31 q=0.0 size=N/A time=00:09:57.40 bitrate=N/A    frame=18000 fps= 31 q=0.0 Lsize=N/A time=00:10:00.00 bitrate=N/A    
video:31145750kB audio:0kB subtitle:0kB other streams:0kB global headers:0kB muxing overhead: unknown

real	9m49.329s
user	95m42.458s
sys	1m39.711s
